<?xml version="1.0" standalone="no"?>
<!DOCTYPE svg PUBLIC "-//W3C//DTD SVG 20010904//EN"
 "http://www.w3.org/TR/2001/REC-SVG-20010904/DTD/svg10.dtd">
<svg version="1.0" xmlns="http://www.w3.org/2000/svg"
 width="1280.000000pt" height="1280.000000pt" viewBox="0 0 1280.000000 1280.000000"
 preserveAspectRatio="xMidYMid meet">
<metadata>
Created by potrace 1.15, written by Peter Selinger 2001-2017
</metadata>
<g transform="translate(0.000000,1280.000000) scale(0.100000,-0.100000)"
fill="#000000" stroke="none">
<path d="M8172 5270 c-31 -13 -43 -50 -30 -97 19 -70 76 -177 123 -230 50 -57
181 -150 223 -159 62 -13 64 -22 5 -17 -68 6 -88 -3 -104 -45 -7 -17 -2 -41
18 -91 32 -82 36 -88 91 -124 l43 -28 -34 -62 c-19 -34 -40 -82 -47 -107 -19
-74 -76 -183 -115 -220 l-36 -35 -107 1 -107 0 -145 63 c-80 35 -192 79 -250
98 l-104 35 -103 -11 c-99 -11 -105 -11 -133 9 -53 38 -70 68 -70 125 0 65
-33 105 -86 105 -76 0 -124 -98 -100 -204 17 -73 52 -122 128 -178 16 -12 17
-16 2 -57 -14 -40 -14 -58 0 -175 19 -161 19 -161 -94 -152 -41 3 -93 8 -115
12 -65 10 -83 -12 -107 -131 -30 -151 -49 -187 -122 -235 -33 -22 -71 -47 -83
-55 -52 -36 -5 -119 73 -131 119 -17 225 76 290 253 15 40 32 73 39 73 14 0
35 -100 35 -167 0 -46 -16 -64 -75 -89 -73 -29 -91 -64 -64 -117 31 -60 97
-72 192 -37 121 45 183 138 180 271 l-2 77 42 6 c22 4 80 29 127 56 47 28 96
50 110 50 13 0 61 -25 107 -56 171 -115 297 -151 488 -141 98 6 120 4 200 -18
100 -28 165 -30 300 -11 50 7 92 11 95 9 10 -10 -33 -31 -75 -37 -61 -10 -95
-39 -95 -81 0 -83 150 -123 247 -65 l33 19 -16 -32 c-9 -17 -41 -58 -70 -89
-30 -31 -54 -61 -54 -67 0 -48 60 -101 115 -101 43 0 133 57 172 108 47 62 56
108 50 247 -9 164 -26 273 -50 318 -24 42 -91 89 -156 108 -37 11 -47 20 -62
55 -42 94 -52 422 -15 463 25 28 37 27 200 -14 149 -38 186 -38 231 -3 14 11
32 33 41 50 31 60 -8 153 -80 190 -48 24 -196 124 -246 167 l-35 29 50 -9 c70
-13 244 5 294 31 63 32 94 81 99 155 7 108 -47 176 -114 143 -41 -20 -51 -41
-36 -82 16 -43 3 -73 -34 -82 -14 -4 -27 -5 -29 -3 -2 2 3 31 10 64 10 43 12
71 4 103 -12 56 -34 98 -54 106 -52 20 -108 -12 -108 -60 0 -28 -2 -29 -34
-26 -26 3 -41 -2 -60 -19 -22 -22 -24 -29 -19 -76 6 -50 5 -53 -23 -68 -83
-43 -138 7 -156 141 -5 43 -3 59 16 95 12 24 22 57 21 74 -2 56 -70 84 -120
50 -31 -22 -71 -95 -81 -146 l-8 -44 -14 30 c-8 18 -14 67 -14 125 -1 119 -1
116 -25 140 -29 29 -85 27 -115 -6 -21 -23 -45 -98 -45 -141 0 -9 -27 21 -61
68 -87 120 -102 131 -157 109z"/>
<path d="M4958 5210 c-32 -25 -53 -97 -44 -152 l7 -43 -89 88 c-84 84 -91 88
-128 85 -54 -4 -74 -40 -55 -95 33 -91 146 -219 245 -277 25 -14 85 -37 133
-50 l88 -23 -53 -5 c-89 -9 -111 -47 -71 -123 37 -69 79 -114 124 -134 44 -19
44 -19 34 -56 -6 -20 -23 -96 -39 -170 -48 -222 -87 -270 -228 -282 -56 -4
-108 4 -323 50 l-256 56 -71 -15 c-39 -8 -92 -21 -119 -29 -47 -14 -49 -14
-92 13 -36 22 -47 37 -65 86 -37 98 -75 124 -140 95 -33 -16 -51 -62 -49 -131
2 -100 54 -177 147 -219 40 -18 40 -18 37 -70 -2 -36 8 -96 31 -182 41 -160
44 -157 -112 -157 -89 0 -110 -3 -123 -18 -30 -32 -39 -77 -38 -181 1 -123 -5
-136 -104 -229 -37 -35 -65 -70 -65 -81 0 -11 11 -33 24 -48 22 -25 30 -28 89
-28 57 0 71 4 108 31 26 19 56 55 76 90 28 51 39 89 69 232 2 12 8 22 13 22
13 0 60 -113 67 -162 6 -44 6 -45 -47 -89 -68 -55 -69 -56 -69 -101 0 -49 28
-78 75 -78 53 0 138 36 188 81 64 56 81 106 75 217 -3 48 -7 93 -9 100 -3 8
15 21 44 32 27 10 67 36 91 58 94 87 122 90 266 29 173 -73 259 -83 430 -51
65 12 146 18 255 19 154 1 164 2 273 37 121 38 134 29 30 -23 -31 -16 -62 -38
-68 -49 -23 -44 21 -103 87 -116 38 -8 101 10 147 41 28 19 36 21 36 9 0 -22
-24 -65 -64 -113 -44 -53 -46 -83 -6 -123 28 -28 35 -30 85 -26 72 6 115 40
156 123 39 81 46 139 24 230 -9 39 -25 109 -35 157 -38 174 -91 229 -243 253
-48 8 -86 57 -116 152 -43 139 -65 345 -39 371 16 16 94 15 207 -3 107 -18
142 -14 189 22 105 79 73 190 -74 252 -43 18 -126 56 -183 84 l-105 51 121 17
c66 10 137 25 159 34 49 20 92 61 110 102 21 49 18 142 -6 181 -36 59 -103 68
-136 17 -16 -24 -16 -28 1 -65 18 -40 18 -40 -5 -65 -33 -35 -51 -33 -44 4 9
44 -23 177 -50 208 -29 33 -84 37 -116 8 -18 -16 -21 -28 -17 -58 5 -35 3 -38
-15 -34 -28 8 -65 -8 -78 -33 -9 -16 -9 -34 0 -71 15 -60 8 -71 -55 -92 -41
-14 -44 -14 -63 6 -12 12 -35 53 -52 90 l-32 68 13 81 c13 80 13 81 -10 99
-41 34 -100 17 -125 -35 -15 -32 -33 -102 -38 -146 -3 -24 -4 -24 -25 11 -13
20 -23 47 -23 59 0 13 -5 53 -11 88 -18 102 -72 139 -131 92z"/>
<path d="M11431 4798 c-21 -19 -23 -27 -18 -78 8 -72 37 -152 80 -216 49 -75
153 -180 200 -202 l42 -21 -51 6 c-47 5 -52 3 -73 -23 -18 -23 -22 -37 -17
-69 13 -82 37 -134 78 -169 44 -38 43 -43 -7 -111 -13 -16 -42 -67 -64 -113
-45 -89 -106 -164 -154 -189 -43 -22 -124 -18 -199 11 -88 32 -117 48 -229
122 -169 112 -286 153 -430 154 l-66 0 -29 41 c-25 37 -29 51 -29 116 0 66 -3
77 -24 94 -26 21 -81 25 -113 8 -28 -15 -57 -86 -64 -156 -8 -73 8 -115 70
-181 l44 -47 -18 -55 c-15 -41 -19 -84 -20 -170 0 -77 -4 -120 -12 -128 -20
-20 -104 -14 -167 12 -91 39 -140 14 -167 -84 -45 -160 -77 -207 -162 -238
-83 -31 -112 -56 -112 -96 0 -49 66 -96 134 -96 83 0 179 77 258 206 28 46 54
84 58 84 4 0 11 -37 15 -83 9 -109 0 -129 -74 -157 -104 -40 -128 -90 -72
-152 27 -30 34 -33 88 -33 112 0 209 50 250 129 21 40 43 123 43 162 0 30 2
31 53 37 28 4 90 23 136 42 61 26 93 34 113 30 16 -4 65 -41 111 -83 131 -122
242 -169 447 -192 74 -8 126 -21 207 -53 l108 -42 143 0 c78 0 142 -1 142 -3
0 -10 -91 -42 -120 -42 -79 0 -107 -65 -52 -120 52 -51 151 -62 224 -24 28 15
29 14 19 -4 -12 -23 -77 -80 -123 -107 -24 -15 -34 -28 -36 -52 -4 -38 20 -88
50 -104 51 -27 179 13 242 76 41 40 62 113 77 261 22 212 -3 344 -71 378 -14
7 -43 21 -65 32 -68 32 -77 64 -71 234 6 157 20 260 39 291 23 37 51 33 198
-26 127 -52 146 -57 192 -52 89 11 128 75 101 166 -11 38 -26 59 -76 102 -114
97 -228 202 -228 209 0 4 33 1 73 -7 39 -8 115 -15 169 -16 110 -2 129 7 183
82 23 33 30 55 33 104 4 56 1 67 -19 90 -33 36 -69 43 -99 19 -19 -16 -23 -27
-21 -70 1 -49 1 -51 -35 -62 -19 -7 -37 -10 -39 -8 -2 1 6 37 17 79 24 88 19
153 -13 188 -39 42 -129 17 -129 -35 0 -22 -3 -24 -22 -18 -61 20 -98 -8 -98
-75 0 -67 -9 -75 -77 -76 l-57 0 -18 45 c-9 25 -17 73 -17 110 -1 56 3 71 29
110 45 67 37 112 -23 133 -49 18 -137 -60 -161 -142 l-13 -45 -11 34 c-16 44
-15 76 4 140 27 91 -2 160 -67 160 -43 0 -83 -43 -105 -113 l-18 -57 -40 77
c-63 121 -82 143 -120 143 -19 0 -42 -9 -55 -22z"/>
<path d="M1170 4200 c-85 -22 -165 -39 -178 -40 -12 0 -56 10 -96 22 -95 28
-129 17 -158 -50 -23 -51 -19 -96 14 -137 57 -73 184 -73 202 0 5 19 13 25 34
25 40 0 81 -29 182 -127 69 -68 90 -94 90 -115 l0 -27 -133 64 c-192 92 -246
108 -332 102 -141 -11 -251 -73 -297 -169 -45 -94 -102 -109 -180 -47 -20 16
-46 29 -58 29 -32 0 -68 -43 -107 -127 -31 -67 -34 -81 -27 -117 7 -30 18 -46
47 -66 20 -14 46 -40 57 -58 18 -28 25 -32 65 -32 34 0 49 5 63 22 9 11 31 38
49 58 l32 36 61 -7 c62 -7 120 -26 120 -38 0 -4 -35 -15 -78 -25 -173 -40
-221 -89 -153 -157 28 -28 34 -29 116 -29 47 0 95 -5 106 -10 40 -22 53 -68
55 -190 2 -172 20 -236 89 -317 58 -68 137 -102 304 -131 l44 -7 -103 -130
c-136 -172 -158 -195 -189 -195 -26 0 -26 1 6 21 19 12 43 43 59 75 54 111 15
220 -101 279 -51 26 -69 30 -134 29 -174 -1 -284 -112 -268 -270 14 -139 117
-219 334 -260 141 -26 582 -15 962 25 340 36 522 72 783 157 430 140 666 331
709 574 34 195 -69 424 -226 502 -124 62 -291 44 -389 -42 l-38 -33 -21 26
c-12 15 -37 38 -56 52 -38 27 -39 26 53 45 42 9 68 21 89 42 26 26 29 33 23
71 -13 79 -85 125 -174 112 -120 -18 -172 -43 -286 -139 -38 -32 -49 -36 -61
-26 -20 17 -19 54 3 72 9 8 48 32 86 53 38 20 86 53 107 72 34 30 39 41 39 77
0 49 -26 81 -79 96 -36 10 -123 -11 -238 -59 l-72 -30 -48 39 c-53 42 -156
154 -197 215 -15 21 -32 58 -38 82 -18 75 -86 126 -205 157 -80 21 -82 21
-263 -24z m1724 -1030 c60 -23 112 -73 121 -118 4 -15 8 -35 10 -44 6 -31 -15
-171 -31 -216 -21 -57 -115 -157 -203 -215 -38 -26 -74 -47 -79 -47 -5 0 -13
12 -17 28 -11 43 -54 125 -83 155 -29 31 -30 31 36 16 39 -8 64 -7 118 6 83
19 125 46 155 98 30 54 23 156 -14 220 -60 101 -205 117 -277 29 -23 -28 -30
-47 -30 -79 0 -57 38 -103 86 -103 39 0 74 29 74 61 0 11 5 17 10 14 19 -12
11 -63 -12 -79 -29 -21 -87 -20 -117 0 -29 21 -60 89 -61 132 0 43 26 99 56
119 68 44 175 54 258 23z m-384 -365 c14 -16 10 -18 -14 -9 -9 3 -16 10 -16
15 0 14 16 11 30 -6z m-544 -222 c-6 -15 -9 -15 -16 -3 -6 9 -5 17 3 22 16 10
21 2 13 -19z m-517 -54 c-11 -46 4 -177 26 -243 8 -22 13 -41 12 -43 -2 -1
-54 -7 -117 -12 -63 -6 -137 -13 -163 -16 -27 -2 -47 0 -45 5 7 22 274 349
284 350 9 0 9 -12 3 -41z m330 -3 c10 -12 8 -17 -8 -26 -12 -6 -21 -7 -21 -1
0 5 -3 16 -6 25 -8 20 19 21 35 2z m450 -164 c9 -18 6 -21 -27 -26 -20 -4 -45
-10 -56 -13 -15 -4 -11 8 20 68 l39 73 7 -42 c4 -22 11 -50 17 -60z m-1657 28
c-4 -68 14 -108 64 -141 16 -10 22 -19 14 -19 -26 0 -94 45 -108 70 -16 31 -8
107 15 132 9 10 17 18 17 18 1 0 -1 -27 -2 -60z m178 9 c0 -16 -3 -29 -7 -29
-5 0 -8 15 -8 34 0 19 3 32 8 29 4 -2 7 -17 7 -34z m975 -74 c25 -4 59 -5 77
-3 l32 5 -23 -18 c-46 -37 -149 -18 -185 33 -29 41 -18 52 19 20 22 -20 50
-33 80 -37z"/>
</g>
</svg>
